<?xml version="1.0" standalone="no"?><!DOCTYPE svg PUBLIC "-//W3C//DTD SVG 1.1//EN" "http://www.w3.org/Graphics/SVG/1.1/DTD/svg11.dtd"><svg t="1670813820841" class="icon" viewBox="0 0 1024 1024" version="1.1" xmlns="http://www.w3.org/2000/svg" p-id="4157" width="32" height="32" xmlns:xlink="http://www.w3.org/1999/xlink"><path d="M102.4 0h819.2A102.4 102.4 0 0 1 1024 102.4v819.2a102.4 102.4 0 0 1-102.4 102.4H102.4A102.4 102.4 0 0 1 0 921.6V102.4A102.4 102.4 0 0 1 102.4 0z" fill="#00A6AB" p-id="4158"></path><path d="M468.114286 351.817143c-50.468571-28.086857-122.514286-51.638857-224.182857-49.810286-12.068571 0.292571-21.723429 10.898286-21.723429 23.844572V644.388571c0 11.702857 8.411429 22.016 19.602286 23.259429 82.944 9.654857 155.355429 17.188571 215.990857 52.443429 9.947429 6.070857 22.016-1.755429 22.016-14.189715V372.589714a24.210286 24.210286 0 0 0-11.702857-20.772571z m-44.105143 199.094857a15.067429 15.067429 0 0 1-19.894857 7.826286 274.285714 274.285714 0 0 0-110.445715-24.137143 14.921143 14.921143 0 0 1-15.067428-15.067429c0-8.411429 6.582857-15.067429 15.067428-15.067428 40.740571 0 82.066286 9.069714 122.514286 26.550857 7.533714 3.291429 11.190857 12.361143 7.826286 19.894857z m0-101.083429a15.067429 15.067429 0 0 1-19.894857 7.899429 274.285714 274.285714 0 0 0-110.445715-24.137143 14.921143 14.921143 0 0 1-15.067428-15.140571c0-8.411429 6.582857-15.067429 15.067428-15.067429 40.740571 0 82.066286 9.069714 122.514286 26.550857 7.533714 3.291429 11.190857 12.434286 7.826286 19.894857z m319.561143-148.114285c-101.668571-1.828571-173.787429 21.723429-224.182857 49.737143a23.552 23.552 0 0 0-11.776 20.845714v331.337143c-0.292571 13.165714 12.653714 21.942857 23.186285 15.652571 60.050286-34.669714 131.876571-41.910857 214.528-51.931428 11.190857-1.170286 19.602286-11.410286 19.602286-23.186286V325.485714a22.674286 22.674286 0 0 0-21.357714-23.844571z m-49.810286 232.886857c-36.571429 0-73.654857 8.192-110.445714 24.137143a15.067429 15.067429 0 0 1-12.068572-27.794286 302.006857 302.006857 0 0 1 122.514286-26.477714c8.411429 0 15.067429 6.582857 15.067429 15.067428 0 8.484571-6.582857 15.067429-15.067429 15.067429z m0-101.010286c-36.571429 0-73.654857 8.045714-110.445714 24.137143a15.067429 15.067429 0 0 1-12.068572-27.794286 302.006857 302.006857 0 0 1 122.514286-26.550857c8.411429 0 15.067429 6.582857 15.067429 15.067429 0 8.484571-6.582857 15.140571-15.067429 15.140571z" fill="#FFFFFF" p-id="4159"></path></svg>